<svg xmlns="http://www.w3.org/2000/svg" viewBox="0 0 100 100" preserveAspectRatio="xMidYMid" width="101" height="101" style="shape-rendering: auto; display: block; background: transparent;" xmlns:xlink="http://www.w3.org/1999/xlink"><g><g transform="translate(50 50)">
<g>
<animateTransform repeatCount="indefinite" dur="0.353356890459364s" keyTimes="0;1" values="0;25.714285714285715" type="rotate" attributeName="transform"></animateTransform><path fill="#e15b64" d="M29.795133830879163 -3.5 L33.795133830879166 -3.5 L33.795133830879166 3.5 L29.795133830879163 3.5 A30 30 0 0 1 28.363081083519724 9.774233036391438 L28.363081083519724 9.774233036391438 L31.9669565551294 11.50976799286167 L28.92977038130649 17.816550068178604 L25.325894909696814 16.08101511170837 A30 30 0 0 1 21.313372277207403 21.112559346824035 L21.313372277207403 21.112559346824035 L23.807331484642337 24.239885276696153 L18.33451110736613 28.60431388970729 L15.840551899931194 25.47698795983517 A30 30 0 0 1 10.042288700036995 28.269284350069942 L10.042288700036995 28.269284350069942 L10.932372435862252 32.168995998797236 L4.107877050589488 33.72664253649144 L3.2177933147642306 29.826930887764142 A30 30 0 0 1 -3.217793314764227 29.826930887764142 L-3.217793314764227 29.826930887764142 L-4.107877050589485 33.72664253649144 L-10.932372435862248 32.168995998797236 L-10.042288700036991 28.269284350069942 A30 30 0 0 1 -15.84055189993119 25.476987959835174 L-15.84055189993119 25.476987959835174 L-18.334511107366126 28.604313889707292 L-23.807331484642333 24.239885276696157 L-21.3133722772074 21.11255934682404 A30 30 0 0 1 -25.325894909696814 16.08101511170837 L-25.325894909696814 16.08101511170837 L-28.92977038130649 17.816550068178604 L-31.966956555129396 11.509767992861674 L-28.36308108351972 9.774233036391442 A30 30 0 0 1 -29.795133830879163 3.500000000000003 L-29.795133830879163 3.500000000000003 L-33.795133830879166 3.5000000000000036 L-33.795133830879166 -3.4999999999999956 L-29.795133830879166 -3.499999999999996 A30 30 0 0 1 -28.363081083519724 -9.774233036391434 L-28.363081083519724 -9.774233036391434 L-31.9669565551294 -11.509767992861667 L-28.92977038130649 -17.8165500681786 L-25.325894909696814 -16.081015111708368 A30 30 0 0 1 -21.313372277207407 -21.112559346824035 L-21.313372277207407 -21.112559346824035 L-23.80733148464234 -24.239885276696153 L-18.33451110736613 -28.604313889707285 L-15.840551899931196 -25.476987959835167 A30 30 0 0 1 -10.042288700036998 -28.269284350069942 L-10.042288700036998 -28.269284350069942 L-10.932372435862256 -32.168995998797236 L-4.107877050589493 -33.72664253649144 L-3.2177933147642346 -29.826930887764142 A30 30 0 0 1 3.217793314764223 -29.826930887764142 L3.217793314764223 -29.826930887764142 L4.1078770505894795 -33.72664253649144 L10.932372435862245 -32.16899599879724 L10.042288700036988 -28.269284350069945 A30 30 0 0 1 15.840551899931187 -25.476987959835174 L15.840551899931187 -25.476987959835174 L18.334511107366122 -28.604313889707296 L23.80733148464233 -24.239885276696164 L21.313372277207396 -21.112559346824042 A30 30 0 0 1 25.32589490969681 -16.081015111708375 L25.32589490969681 -16.081015111708375 L28.929770381306486 -17.816550068178607 L31.966956555129396 -11.50976799286168 L28.36308108351972 -9.774233036391445 A30 30 0 0 1 29.795133830879163 -3.5000000000000067 M0 -26A26 26 0 1 0 0 26 A26 26 0 1 0 0 -26"></path></g></g><g></g></g><!-- [ldio] generated by https://loading.io --></svg>